<?xml version="1.0" encoding="UTF-8" standalone="no"?>
<svg width="48" height="48">  
   <g>
      <rect
         style="fill:#62a0ea;fill-opacity:1;stroke-linecap:round;stroke-linejoin:round"
         y="5.4674392"
         x="4.5"
         ry="2.2322156"
         rx="2.2322156"
         height="39"
         width="39"
      />
      <path
         style="fill:#e6e6e6;fill-opacity:1"
         d="m 33.839384,19.328695 -4.050162,-3.93779 4.90239,-4.560138 -3.017465,-2.8216149 9.573184,-0.094523 0.137463,8.7406459 -2.914113,-2.339087 z M 23.21875,23 c -0.172892,0 -0.28125,0.294922 -0.28125,0.65625 V 25.9375 C 22.24145,26.095996 21.585954,26.379869 21,26.75 l -1.625,-1.625 c -0.255498,-0.255497 -0.533998,-0.372253 -0.65625,-0.25 l -1.53125,1.53125 c -0.122254,0.122254 -0.0055,0.400753 0.25,0.65625 l 1.625,1.625 c -0.37013,0.585953 -0.654003,1.24145 -0.8125,1.9375 h -2.28125 c -0.361328,0 -0.65625,0.108357 -0.65625,0.28125 v 2.1875 c 0,0.172892 0.294922,0.28125 0.65625,0.28125 H 18.25 c 0.158497,0.69605 0.44237,1.351546 0.8125,1.9375 l -1.625,1.625 c -0.255497,0.255498 -0.372254,0.533997 -0.25,0.65625 l 1.53125,1.53125 c 0.122252,0.122254 0.400752,0.0055 0.65625,-0.25 L 21,37.25 c 0.585954,0.37013 1.24145,0.654002 1.9375,0.8125 v 2.28125 C 22.9375,40.705077 23.045858,41 23.21875,41 h 2.1875 c 0.172893,0 0.28125,-0.294924 0.28125,-0.65625 V 38.0625 c 0.69605,-0.158498 1.351546,-0.44237 1.9375,-0.8125 l 1.625,1.625 c 0.255498,0.255497 0.533997,0.372254 0.65625,0.25 l 1.53125,-1.53125 c 0.122254,-0.122252 0.0055,-0.400752 -0.25,-0.65625 l -1.625,-1.625 c 0.370129,-0.585954 0.654003,-1.24145 0.8125,-1.9375 h 2.28125 c 0.361329,0 0.65625,-0.108358 0.65625,-0.28125 v -2.1875 c 0,-0.172893 -0.294921,-0.28125 -0.65625,-0.28125 H 30.375 c -0.158497,-0.69605 -0.442371,-1.351547 -0.8125,-1.9375 l 1.625,-1.625 c 0.255497,-0.255497 0.372254,-0.533997 0.25,-0.65625 L 29.90625,24.875 C 29.783997,24.752745 29.505498,24.8695 29.25,25.125 L 27.625,26.75 C 27.039046,26.379869 26.38355,26.095996 25.6875,25.9375 V 23.65625 C 25.6875,23.294922 25.579143,23 25.40625,23 Z m 1.09375,6.21875 c 1.528616,0 2.78125,1.252635 2.78125,2.78125 0,1.528615 -1.252634,2.78125 -2.78125,2.78125 -1.528614,0 -2.78125,-1.252635 -2.78125,-2.78125 0,-1.528615 1.252636,-2.78125 2.78125,-2.78125 z"
         />
      <path
         style="fill:#62a0ea;fill-opacity:1;"
         d="m 23.991123,34.741159 c -1.592414,-0.231069 -2.695587,-1.738056 -2.378872,-3.249653 0.210262,-1.003527 0.949183,-1.831755 1.895406,-2.12449 0.38512,-0.119145 1.051541,-0.140046 1.443111,-0.04526 0.635573,0.153851 1.287614,0.616988 1.661339,1.180027 0.520435,0.78407 0.581774,1.86842 0.15503,2.740652 -0.28235,0.577103 -0.995766,1.186258 -1.610696,1.375303 -0.321417,0.09881 -0.90729,0.160863 -1.165318,0.123421 z"
         />
    </g>
</svg>
